<?xml version="1.0" encoding="UTF-8"?><svg id="Ebene_1" xmlns="http://www.w3.org/2000/svg" xmlns:xlink="http://www.w3.org/1999/xlink" viewBox="0 0 279.29 71.87"><defs><style>.cls-1{fill:#ffffff;}.cls-2{fill:url(#Unbenannter_Verlauf_6);}.cls-3{fill:url(#Unbenannter_Verlauf_7);}.cls-4{fill:url(#Unbenannter_Verlauf_8);}</style><linearGradient id="Unbenannter_Verlauf_7" x1="31.84" y1="33.07" x2="60.62" y2="33.07" gradientUnits="userSpaceOnUse"><stop offset=".24" stop-color="#36a9e1"/><stop offset=".83" stop-color="#077ab7"/><stop offset=".93" stop-color="#0073b0"/></linearGradient><linearGradient id="Unbenannter_Verlauf_8" x1="7.71" y1="19.43" x2="36.48" y2="19.43" gradientUnits="userSpaceOnUse"><stop offset=".24" stop-color="#36a9e1"/><stop offset=".48" stop-color="#2699d2"/><stop offset=".93" stop-color="#0073b0"/></linearGradient><linearGradient id="Unbenannter_Verlauf_6" x1="0" y1="47.16" x2="45.21" y2="47.16" gradientUnits="userSpaceOnUse"><stop offset=".24" stop-color="#36a9e1"/><stop offset=".41" stop-color="#2fa2db"/><stop offset=".65" stop-color="#1c8fca"/><stop offset=".93" stop-color="#0073b0"/></linearGradient></defs><g><polygon class="cls-3" points="54.46 41.83 38.19 13.64 32.03 24.32 42.13 41.83 48.3 52.5 60.62 52.5 54.46 41.83"/><polygon class="cls-4" points="36.48 10.67 30.31 0 24.15 10.67 7.88 38.85 20.2 38.85 30.31 21.35 36.48 10.67"/><polygon class="cls-2" points="18.49 41.83 6.16 41.83 0 52.5 12.33 52.5 44.52 52.5 38.35 41.83 18.49 41.83"/></g><polygon class="cls-1" points="70.21 12.39 83.1 12.39 83.1 52.5 90.23 52.5 90.23 12.39 103.12 12.39 103.12 5.59 70.21 5.59 70.21 12.39"/><path class="cls-1" d="M279.29,26.44v-6.16h-10.67V10.29h-6.46v31.36c.01,3.57,.85,6.3,2.49,8.11,2.07,2.36,4.97,3.56,8.63,3.56,1.88,0,3.5-.21,4.8-.63l.15-.05-1.29-5.83-.17,.05c-.88,.25-1.98,.37-3.27,.37-.81,0-1.6-.14-2.35-.41-.74-.27-1.31-.65-1.71-1.13-.55-.63-.83-1.89-.83-3.73l.02-15.52h10.67Z"/><path class="cls-1" d="M119.95,19.73c-1.01,.3-1.95,.7-2.79,1.21-.85,.5-1.63,1.12-2.31,1.83-.59,.61-1.09,1.29-1.48,2.02v-4.69h-6.46V52.69h6.46v-16.36c0-3.48,.79-6.07,2.33-7.71,1.55-1.64,3.82-2.46,6.75-2.46,.48,0,.98,.04,1.47,.13,.51,.09,1.01,.21,1.48,.34l.21,.06,.29-6.94-.12-.04c-1.66-.55-3.8-.56-5.82,.03Z"/><rect class="cls-1" x="133.49" y="20.1" width="6.46" height="32.59"/><path class="cls-1" d="M157.11,28.78c.82-1.04,1.85-1.87,3.07-2.47,1.22-.6,2.67-.9,4.31-.9s3.16,.3,4.38,.9c1.22,.6,2.41,1.49,3.53,2.65l.11,.12,4.87-4.44-.12-.13c-1.6-1.73-3.51-3.04-5.68-3.89-2.17-.84-4.46-1.27-6.83-1.27-2.55,0-4.89,.43-6.97,1.27-2.08,.84-3.88,2.04-5.36,3.54-1.48,1.51-2.65,3.33-3.47,5.43-.82,2.1-1.24,4.43-1.24,6.93s.42,4.83,1.24,6.9c.82,2.08,2,3.88,3.51,5.37,1.51,1.48,3.32,2.65,5.4,3.47,2.07,.82,4.39,1.24,6.9,1.24,2.37,0,4.64-.39,6.76-1.17,2.12-.78,4.01-2.07,5.61-3.86l.11-.12-4.59-4.59-.12,.13c-1.03,1.16-2.15,2.05-3.35,2.65-1.19,.6-2.66,.9-4.35,.9-1.56,0-2.98-.28-4.22-.84-1.24-.55-2.32-1.33-3.21-2.31-.89-.97-1.59-2.13-2.08-3.45-.49-1.31-.74-2.72-.74-4.19s.21-2.91,.64-4.27c.42-1.36,1.05-2.57,1.88-3.62Z"/><path class="cls-1" d="M214.8,36.46c0-2.09-.29-4.18-.86-6.2-.57-2.03-1.51-3.88-2.79-5.5-1.28-1.62-2.93-2.95-4.92-3.96-1.99-1.01-4.45-1.52-7.32-1.52-2.41,0-4.68,.44-6.73,1.31-2.05,.87-3.85,2.08-5.33,3.61-1.48,1.53-2.66,3.36-3.5,5.43-.84,2.07-1.27,4.35-1.27,6.77s.39,4.69,1.17,6.76c.77,2.08,1.9,3.9,3.33,5.43,1.44,1.53,3.22,2.75,5.3,3.61,2.07,.87,4.42,1.31,6.97,1.31,6.15,0,11-2.24,14.42-6.66l.1-.13-4.89-3.74-.1,.13c-1.16,1.43-2.45,2.6-3.84,3.47-1.37,.86-3.02,1.3-4.88,1.3-1.38,0-2.74-.23-4.03-.67-1.29-.44-2.44-1.07-3.42-1.88-.98-.8-1.77-1.78-2.37-2.91-.57-1.08-.87-2.29-.9-3.6h25.85v-2.35Zm-26.02-2.72c0-1.09,.24-2.19,.71-3.3,.48-1.11,1.15-2.12,2.01-3.03,.86-.91,1.92-1.64,3.16-2.21,1.25-.57,2.62-.85,4.12-.85s2.89,.24,4.05,.72c1.16,.48,2.12,1.13,2.89,1.97,.77,.84,1.35,1.83,1.73,2.96,.38,1.13,.6,2.38,.65,3.74h-19.32Z"/><path class="cls-1" d="M254.1,29.7c-.74-2.08-1.82-3.91-3.2-5.46-1.38-1.55-3.07-2.78-5.02-3.65-1.95-.87-4.16-1.31-6.57-1.31-2.11,0-4.19,.49-6.18,1.44-1.9,.91-3.43,2.19-4.56,3.81v-4.44h-6.22v51.78h6.22v-23.61c1.05,1.57,2.53,2.83,4.39,3.76,1.97,.98,4.11,1.48,6.35,1.48,2.41,0,4.62-.44,6.57-1.31,1.95-.87,3.64-2.08,5.02-3.61,1.38-1.53,2.46-3.36,3.2-5.43,.74-2.07,1.12-4.35,1.12-6.76s-.38-4.62-1.12-6.69h0Zm-21.92,14.64c-.85-.95-1.52-2.12-1.99-3.48-.47-1.36-.71-2.86-.71-4.47s.24-3.11,.71-4.47c.47-1.36,1.14-2.53,1.99-3.48,.85-.95,1.91-1.72,3.14-2.27,1.24-.56,2.64-.84,4.18-.84s2.94,.28,4.18,.84c.31,.14,.61,.29,.89,.45,.86,.49,1.61,1.1,2.25,1.82,.3,.34,.58,.72,.83,1.12,.46,.71,.85,1.5,1.16,2.37,.47,1.36,.71,2.86,.71,4.47s-.24,3.11-.71,4.47c-.47,1.36-1.14,2.53-1.99,3.48-.85,.95-1.91,1.72-3.14,2.27-1.23,.55-2.64,.84-4.18,.84s-2.94-.28-4.18-.84c-1.24-.55-2.29-1.32-3.14-2.27Z"/><rect class="cls-1" x="133.49" y="6.32" width="6.46" height="6.15"/></svg>